# xmcd
#
# Track frame offsets:
#	150
#	14178
#	39994
#	64366
#	89374
#	109397
#	132732
#	154584
#	171192
#	195476
#	209838
#	231215
#	265166
#
# Disc length: 4239
#
# Revision: 2
# Processed by: cddbd v1.5.1PL0 Copyright (c) Steve Scherf et al.
# Submitted via: CDex 1.50Beta6
# Normalized: r1:TDELIM( - )
#
DISCID=c4108d0d
DTITLE=Various Artist - Blue Note Festival 2002 Touring Artist Sampler
DYEAR=2002
DGENRE=Jazz+Funk
TTITLE0=Norah Jones - Don't Know Why
TTITLE1=Bill Charlap - Georgia On My Mind
TTITLE2=Dianne Reeves - Fascinating Rhythm
TTITLE3=Marc Jordan - Let's Get Lost
TTITLE4=Cassandra Wilson - The Weight (Radio Edit)
TTITLE5=Renee Rosnes - The Quiet Earth
TTITLE6=Molly Johnson - It's Only Love (And I Believed You)
TTITLE7=Bobby McFerrin - Invocation (Radio Edit)
TTITLE8=Soulive - Clap! (Instrumental)
TTITLE9=Medeski Martin and Wood - Your Name Is Snake Anthony
TTITLE10=Gonzalo Rubalcaba - Oren (Pray)
TTITLE11=Jane Bunnett - Alma De Santiago (Radio Edit)
TTITLE12=Data Track - artist features, bios, video and weblinks
EXTD=YEAR: 2002
EXTT0=
EXTT1=
EXTT2=
EXTT3=
EXTT4=
EXTT5=
EXTT6=
EXTT7=
EXTT8=
EXTT9=
EXTT10=
EXTT11=
EXTT12=
PLAYORDER=
